<svg width="40" height="40" viewBox="0 0 40 40" fill="none" xmlns="http://www.w3.org/2000/svg">
<path d="M15.4015 34.3888H23.7549V22.2307H15.4015V34.3888ZM22.2408 32.9136H16.9155V23.706H22.1886V32.9136H22.2408Z" fill="#81B3D2"/>
<path d="M38.4036 21.6278L39.5 20.5595L34.3313 15.5233V1.7882H27.1265V8.50314L19.9739 1.58472L0.5 20.6104L1.59639 21.6787L5.66867 17.7108V36.9399H3.63253V38.4152H36.994V36.9399H34.3313V17.6599L38.4036 21.6278ZM28.6406 3.31432H32.7651V14.0481L28.6406 10.0293V3.31432ZM32.8173 36.889H7.23494V16.1846L19.9739 3.72129L32.7651 16.1846V36.889H32.8173Z" fill="#81B3D2"/>
<path d="M15.5582 15.0063C15.5582 17.1937 17.3855 18.9742 19.5783 18.9742C21.8233 18.9742 23.6506 17.1937 23.6506 15.0063C23.6506 12.8188 21.8233 11.0892 19.5783 11.0892C17.3333 11.0892 15.5582 12.8188 15.5582 15.0063ZM19.5783 12.4627C20.9879 12.4627 22.1888 13.5819 22.1888 15.0063C22.1888 16.3798 21.0402 17.5498 19.5783 17.5498C18.1687 17.5498 16.9679 16.4307 16.9679 15.0063C16.9679 13.6328 18.1687 12.4627 19.5783 12.4627Z" fill="#81B3D2"/>
<path d="M10.3895 22.2307H8.82324V24.2147H10.3895V22.2307Z" fill="#81B3D2"/>
<path d="M13.4698 22.2307H11.9036V24.2147H13.4698V22.2307Z" fill="#81B3D2"/>
<path d="M10.3895 25.2822H8.82324V27.2662H10.3895V25.2822Z" fill="#81B3D2"/>
<path d="M13.4698 25.2822H11.9036V27.2662H13.4698V25.2822Z" fill="#81B3D2"/>
<path d="M27.0443 22.2307H25.478V24.2147H27.0443V22.2307Z" fill="#81B3D2"/>
<path d="M30.1769 22.2307H28.6106V24.2147H30.1769V22.2307Z" fill="#81B3D2"/>
<path d="M27.0443 25.2822H25.478V27.2662H27.0443V25.2822Z" fill="#81B3D2"/>
<path d="M30.1769 25.2822H28.6106V27.2662H30.1769V25.2822Z" fill="#81B3D2"/>
</svg>
